# xmcd
#
# Track frame offsets: 
#        150
#        12425
#        24960
#        38810
#        56615
#        70362
#        83627
#        100162
#        113240
#        124310
#        136017
#        150402
#        162875
#        177100
#        189322
#        203852
#
# Disc length: 2889 seconds
#
# Revision: 6
# Processed by: cddbd v1.5.2PL0 Copyright (c) Steve Scherf et al.
# Submitted via: ExactAudioCopy v1.3
#
DISCID=c70b4710,cc0b4710
DTITLE=Charlie Rich - Greatest Hits
DYEAR=1993
DGENRE=Country
TTITLE0=The Most Beautiful Girl (1973)
TTITLE1=A Very Special Love Song (1974)
TTITLE2=Since I Fell For You (1975)
TTITLE3=My Elusive Dreams (1973)
TTITLE4=Every Time You Touch Me (I Get High) (1975)
TTITLE5=Behind Closed Doors (1973)
TTITLE6=Life Has Its Little Ups And Downs (1972)
TTITLE7=All Over Me (1975)
TTITLE8=I Love My Friend (1974)
TTITLE9=Daddy Don't You Walk So Fast (1972)
TTITLE10=We Love Each Other (1973)
TTITLE11=She (1975)
TTITLE12=A Sunday Kind Of Woman (1973)
TTITLE13=Rollin' With The Flow (1977)
TTITLE14=Almost Persuaded (1974)
TTITLE15=Spanish Eyes (1976)
EXTD=
EXTT0=
EXTT1=
EXTT2=
EXTT3=
EXTT4=
EXTT5=
EXTT6=
EXTT7=
EXTT8=
EXTT9=
EXTT10=
EXTT11=
EXTT12=
EXTT13=
EXTT14=
EXTT15=
PLAYORDER=
